<?xml version="1.0" encoding="UTF-8"?>
<svg width="752pt" height="752pt" version="1.1" viewBox="0 0 752 752" xmlns="http://www.w3.org/2000/svg">
 <path d="m183.61 265.01c-17.316 18.008-27.586 41.645-28.934 66.594-4.957 52.688 17.391 111 61.195 161.02 42.551 48.473 94.57 83.176 146.52 97.531 16.527 4.7734 33.633 7.2656 50.836 7.3984 28.078 1.0117 55.547-8.3359 77.18-26.266 9.1641-7.1562 15.961-16.906 19.512-27.977 3.5508-11.074 3.6875-22.957 0.39063-34.109-4.7344-14.801-25.676-22.199-37.664-25.383-43.879-11.027-52.539-13.469-73.258-19.238-14.43-4.1445-23.012 9.1016-28.637 17.906-2.5156 3.9219-7.8438 12.211-10.434 13.023-15.539-4.1445-34.703-17.609-54.758-38.109l262.84 0.003907c3.9258 0 7.6875-1.5586 10.465-4.3359 2.7734-2.7734 4.332-6.5391 4.332-10.465v-273.79c-0.035156-1.3086-0.25781-2.6016-0.66406-3.8477-0.44531-1.3242-1.0938-2.5742-1.9258-3.6992-0.78906-1.0977-1.7656-2.0508-2.8828-2.8125-1.1641-0.79297-2.4375-1.4141-3.7734-1.8477h-0.51953c-1.5195-1.1445-3.2188-2.0195-5.0312-2.5898h-369.98c-1.4297 0.027343-2.8516 0.25-4.2188 0.66406h-0.59375c-1.3203 0.42188-2.5703 1.043-3.6992 1.8516-1.1172 0.75781-2.0977 1.7109-2.8867 2.8125h-0.37109 0.003906c-0.82812 1.125-1.4805 2.3711-1.9258 3.6992-0.70703 1.8438-1.082 3.7969-1.1094 5.7695zm212.07 233.46c0.66406-1.1094 1.4805-2.3672 2.293-3.5508 16.797 4.6602 28.117 7.3984 67.484 17.609l0.003906 0.003906c6.0703 1.2305 11.848 3.6172 17.02 7.0273 0.95703 5.5234 0.37891 11.207-1.668 16.426-2.0508 5.2188-5.4922 9.7773-9.9492 13.176-22.199 19.609-59.199 24.195-100.49 12.578-46.543-13.023-93.531-44.398-132.31-88.352-38.773-43.957-58.086-94.273-53.941-138.82 2.0703-22.199 10.582-41.066 23.383-50.984 4.7617-3.6758 10.305-6.207 16.203-7.3984l5.5508-1.1094c4.3672-0.88672 8.7305-1.7773 11.766-2.2188 0.37109 1.0352 0.73828 2.5156 1.2578 4.4414 0.51953 1.9258 13.098 51.797 19.98 79.473-16.648 11.84-42.328 30.855-31.227 51.797v-0.003906c0.60156 1.1953 1.2656 2.3594 1.9961 3.4805 8.4141 14.059 17.836 27.484 28.191 40.18 22.199 27.824 56.461 62.898 91.535 72.148 22.645 5.6211 35.816-15.172 42.918-25.902zm-115.88-70.664c-2.2188-2.9609-4.3672-5.7734-6.2891-8.4375l-1.1094-1.332-5.0312-7.3984-0.88672-1.4062-3.9961-5.9922-0.51953-0.88672c-1.1836-1.8516-2.293-3.5508-3.1094-4.957v-0.003906c6.5078-6.8398 13.812-12.875 21.758-17.98 7.3984-5.3281 15.316-10.805 12.43-20.867-3.9961-16.133-21.387-85.836-22.199-89.387-7.918-30.117-22.199-28.711-47.508-23.531l-5.5508 1.1094c-1.5547 0-3.0352 0.66406-4.5859 1.1094v-48.246l161.02 126.61c2.6133 2.0625 5.8438 3.1875 9.1758 3.1875 3.3281 0 6.5625-1.125 9.1758-3.1875l161.02-126.61v228.21zm245.82-244.19-142.22 112.18-142.22-112.18z" fill="#fff"/>
</svg>
