<?xml version="1.0" encoding="UTF-8"?>
<svg width="752pt" height="752pt" version="1.1" viewBox="0 0 752 752" xmlns="http://www.w3.org/2000/svg">
 <g>
  <path d="m582.01 489.71h-21.699v-218.32c0.003906-7.2734-5.8828-13.176-13.156-13.195h-22.73c-2.6172 0-4.7344 2.1172-4.7344 4.7344 0 2.6133 2.1172 4.7344 4.7344 4.7344h22.73c2.0469 0.015626 3.6953 1.6836 3.6875 3.7266v218.32h-349.68v-218.32c0.003907-2.0547 1.668-3.7188 3.7227-3.7266h22.695c2.6133 0 4.7344-2.1211 4.7344-4.7344 0-2.6172-2.1211-4.7344-4.7344-4.7344h-22.695c-7.2852 0.007813-13.188 5.9141-13.195 13.195v218.32h-21.699c-2.6133 0-4.7344 2.1172-4.7344 4.7344v10.574c0.011719 9.3906 3.7461 18.398 10.387 25.039s15.645 10.375 25.039 10.387h350.64c9.3945-0.011719 18.398-3.7461 25.039-10.387s10.375-15.648 10.387-25.039v-10.574c0-1.2578-0.5-2.4609-1.3867-3.3477-0.89062-0.89062-2.0938-1.3867-3.3516-1.3867zm-153.2 9.4727 0.003906-0.003906c-0.92578 6.3984-6.3984 11.148-12.863 11.164h-79.902c-6.4648-0.015625-11.941-4.7656-12.863-11.164zm148.46 5.8359c-0.007813 6.8828-2.7461 13.477-7.6094 18.344-4.8672 4.8633-11.461 7.6016-18.344 7.6094h-350.64c-6.8828-0.007812-13.48-2.7461-18.344-7.6094-4.8672-4.8672-7.6016-11.461-7.6094-18.344v-5.8398h138.98c0.46094 5.6133 3.0117 10.848 7.1484 14.672 4.1367 3.8203 9.5547 5.9492 15.188 5.9648h79.902c5.6328-0.015624 11.051-2.1445 15.188-5.9648 4.1367-3.8242 6.6875-9.0586 7.1445-14.672h138.99z"/>
  <path d="m219.89 384.78v-98.418h7.6953c2.6133 0 4.7344-2.1211 4.7344-4.7383 0-2.6133-2.1211-4.7344-4.7344-4.7344h-12.434c-2.6133 0-4.7344 2.1211-4.7344 4.7344v194.1c0 1.2578 0.5 2.4609 1.3867 3.3516 0.88672 0.88672 2.0938 1.3867 3.3477 1.3867h321.7c1.2578 0 2.4609-0.5 3.3516-1.3867 0.88672-0.89062 1.3867-2.0938 1.3867-3.3516v-194.1c0-1.2539-0.5-2.4609-1.3867-3.3477-0.89062-0.88672-2.0938-1.3867-3.3516-1.3867h-12.43c-2.6172 0-4.7344 2.1211-4.7344 4.7344 0 2.6172 2.1172 4.7383 4.7344 4.7383h7.6953v184.63h-312.23z"/>
  <path d="m259.7 452.87h232.59c5.8047-0.007813 11.367-2.3125 15.469-6.418 4.1016-4.1016 6.4102-9.6641 6.418-15.465v-197.53c-0.007813-5.8008-2.3164-11.363-6.418-15.465-4.1016-4.1016-9.6641-6.4102-15.469-6.418h-232.59c-5.8008 0.007813-11.363 2.3164-15.465 6.418-4.1016 4.1016-6.4102 9.6641-6.418 15.465v197.53c0.007813 5.8008 2.3164 11.363 6.418 15.465 4.1016 4.1055 9.6641 6.4102 15.465 6.418zm59.637-9.4727h-52.094l0.003906-101.2c6.7461 2.9258 14.34 3.25 21.309 0.90625v66.773c0 2.6172 2.1211 4.7383 4.7383 4.7383 2.6133 0 4.7344-2.1211 4.7344-4.7383v-66.773c6.9688 2.3516 14.566 2.0273 21.312-0.90625zm-17.523-141.32 16.137 30.223v0.003906c-3.3906 1.9922-7.2695 2.9961-11.199 2.9062-3.9336-0.089843-7.7617-1.2773-11.059-3.4258-0.09375-0.035156-0.1875-0.070312-0.28125-0.097656-0.19531-0.097656-0.39844-0.18359-0.60156-0.25-0.20312-0.074219-0.41016-0.13281-0.62109-0.17578-0.19922-0.035156-0.40234-0.058593-0.60156-0.070312-0.097656 0-0.1875-0.0625-0.29297-0.0625s-0.1875 0.058594-0.29297 0.0625h-0.003906c-0.19922 0.011719-0.39844 0.035156-0.59375 0.070312-0.21094 0.042969-0.41797 0.10156-0.62109 0.17578-0.20703 0.066406-0.41016 0.15234-0.60547 0.25-0.089844 0.046875-0.19531 0.042968-0.28516 0.097656-3.2969 2.1484-7.125 3.332-11.055 3.4258-3.9336 0.089844-7.8125-0.91797-11.203-2.9062l16.141-30.223zm-11.953-9.4727 3.4492-6.4648 3.4492 6.4648zm54.773 150.8 11.609-92.348h15.277l-0.003907-0.003906c2.6172 0 4.7383-2.1172 4.7383-4.7344s-2.1211-4.7344-4.7383-4.7344h-16l-15.383-47.871 24.277-42.484v40.609c-5.7852 1.5469-10.449 5.8164-12.5 11.438-2.0469 5.625-1.2227 11.895 2.207 16.801 3.4336 4.9023 9.043 7.8242 15.027 7.8242 5.9844 0 11.594-2.9219 15.027-7.8242 3.4336-4.9062 4.2539-11.176 2.207-16.801-2.0508-5.6211-6.7148-9.8906-12.5-11.438v-40.605l24.27 42.477-16.441 51.148v-0.003906c-0.21094 0.66016-0.27734 1.3555-0.1875 2.043l12.129 96.508zm24.512-142.79c3.5859 0 6.8203 2.1641 8.1914 5.4766s0.61328 7.125-1.9258 9.6602c-2.5352 2.5352-6.3477 3.293-9.6602 1.918-3.3125-1.3711-5.4727-4.6055-5.4688-8.1914 0.003906-4.8945 3.9688-8.8594 8.8633-8.8633zm115.59-9.4727-22.137 0.003907c-2.6172 0-4.7383 2.1211-4.7383 4.7344 0 2.6172 2.1211 4.7344 4.7383 4.7344h22.141v10.309l-14.078 0.003907c-2.6133 0-4.7344 2.1211-4.7344 4.7344 0 2.6172 2.1211 4.7383 4.7344 4.7383h14.074v10.309h-22.137c-2.6172 0-4.7383 2.1211-4.7383 4.7344 0 2.6172 2.1211 4.7383 4.7383 4.7383h22.141v10.309h-14.078c-2.6133 0-4.7344 2.1211-4.7344 4.7344 0 2.6172 2.1211 4.7383 4.7344 4.7383h14.074v10.309h-22.137c-2.6172 0-4.7383 2.1211-4.7383 4.7344 0 2.6172 2.1211 4.7383 4.7383 4.7383h22.141v10.309h-14.078c-2.6133 0-4.7344 2.1211-4.7344 4.7344 0 2.6172 2.1211 4.7383 4.7344 4.7383h14.074v10.309h-22.137c-2.6172 0-4.7383 2.1211-4.7383 4.7344 0 2.6172 2.1211 4.7383 4.7383 4.7383h22.141v24.102h-57.73v-162.59h57.73zm19.973 139.85v0.003906c-0.015626 6.1016-4.4688 11.285-10.5 12.223v-167.13c0-1.2539-0.49609-2.457-1.3867-3.3477-0.88672-0.88672-2.0938-1.3867-3.3477-1.3867h-67.203c-2.6133 0-4.7344 2.1211-4.7344 4.7344v167.32h-14.34l-12.148-96.648 16.762-52.133c0.40234-1.2617 0.25781-2.6367-0.39844-3.7891l-16.898-29.574h114.2zm-257.42-197.53c0.007812-6.8516 5.5586-12.406 12.41-12.414h232.59c6.8555 0.007813 12.406 5.5625 12.414 12.414v18.328h-119.6l-11.84-20.738c-0.050781-0.089844-0.14062-0.14062-0.19922-0.22656-0.11719-0.17578-0.24609-0.34375-0.38281-0.50391-0.27734-0.32031-0.59375-0.60156-0.94922-0.83594-0.085937-0.058593-0.13281-0.14062-0.22266-0.19531-0.089844-0.050781-0.17578-0.042969-0.26172-0.085938h0.003906c-0.17969-0.085937-0.35937-0.16406-0.54687-0.22656-0.21484-0.074219-0.43359-0.13281-0.65625-0.17578-0.20703-0.039063-0.41797-0.066407-0.625-0.085938-0.089844 0-0.17188-0.050781-0.26172-0.050781-0.089844 0-0.17188 0.046875-0.26562 0.050781-0.21094 0.019531-0.41797 0.046875-0.625 0.085938-0.22266 0.042969-0.44141 0.10156-0.65234 0.17578-0.1875 0.0625-0.37109 0.14062-0.55078 0.22656-0.082031 0.042969-0.17578 0.039063-0.25391 0.085938-0.082031 0.046875-0.14062 0.13672-0.22656 0.19531h-0.003906c-0.17578 0.11719-0.34375 0.24609-0.50391 0.38672-0.16016 0.14062-0.3125 0.28906-0.45313 0.44922-0.13672 0.15625-0.26562 0.32422-0.375 0.50391-0.058593 0.085938-0.14844 0.13672-0.19922 0.22656l-11.84 20.738h-105.93zm0 27.812h100.48l-16.895 29.566h0.003906c-0.65625 1.1523-0.80078 2.5273-0.39844 3.7891l16.762 52.133-12.148 96.645h-6.2812v-109.67c-0.007812-0.51172-0.10156-1.0195-0.27344-1.5039-0.027343-0.082031-0.0625-0.15234-0.089843-0.23047-0.054688-0.16016-0.12109-0.32031-0.19531-0.47266l-30.781-57.641c-0.070312-0.12891-0.1875-0.20703-0.26953-0.32812-0.17969-0.26953-0.38672-0.51953-0.61719-0.74609-0.22266-0.22266-0.46484-0.42188-0.72266-0.59766-0.125-0.082032-0.20312-0.20313-0.33594-0.27344-0.14453-0.054688-0.28906-0.097656-0.4375-0.13281-1.1484-0.48047-2.4414-0.48047-3.5898 0-0.14062 0.0625-0.29688 0.058593-0.4375 0.13281-0.13672 0.074219-0.20703 0.19531-0.33203 0.27344h0.003906c-0.53125 0.35547-0.98438 0.80859-1.3398 1.3359-0.082031 0.125-0.20312 0.20312-0.27344 0.33594l-30.77 57.602c-0.0625 0.13672-0.11719 0.27734-0.16406 0.41797-0.046875 0.11328-0.09375 0.22266-0.13281 0.33594-0.16406 0.47656-0.25391 0.97266-0.26563 1.4766v109.49c-6.0273-0.9375-10.48-6.1211-10.496-12.223z"/>
  <path d="m266.52 228.66c-3.1328-0.003906-5.9609 1.8828-7.1602 4.7773-1.1992 2.8945-0.53516 6.2266 1.6797 8.4414s5.5469 2.875 8.4414 1.6758c2.8906-1.1992 4.7773-4.0234 4.7773-7.1562-0.007812-4.2734-3.4688-7.7344-7.7383-7.7383zm0 9.4727c-0.70312 0-1.3359-0.42188-1.6055-1.0664-0.26953-0.64844-0.125-1.3945 0.37109-1.8906s1.2422-0.64844 1.8906-0.37891 1.0703 0.89844 1.0703 1.6016c0 0.95703-0.77344 1.7305-1.7266 1.7344z"/>
  <path d="m296.84 228.66c-3.1289 0-5.9531 1.8867-7.1523 4.7812-1.1992 2.8945-0.53516 6.2227 1.6797 8.4375 2.2148 2.2148 5.5469 2.875 8.4414 1.6758 2.8945-1.1992 4.7773-4.0234 4.7773-7.1562-0.007812-4.2734-3.4727-7.7344-7.7461-7.7383zm0 9.4727c-0.69922 0-1.332-0.42188-1.6016-1.0703-0.26562-0.64844-0.11719-1.3945 0.37891-1.8906 0.49609-0.49609 1.2383-0.64453 1.8867-0.375s1.0703 0.90234 1.0703 1.6016c0 0.95703-0.77734 1.7344-1.7344 1.7344z"/>
  <path d="m327.16 228.66c-3.1289 0-5.9531 1.8867-7.1523 4.7812s-0.53516 6.2227 1.6797 8.4375 5.5469 2.875 8.4414 1.6758c2.8945-1.1992 4.7773-4.0234 4.7773-7.1562-0.007812-4.2734-3.4727-7.7344-7.7461-7.7383zm0 9.4727c-0.69922-0.003906-1.3281-0.42578-1.5977-1.0742-0.26562-0.64844-0.11719-1.3945 0.37891-1.8867 0.49609-0.49609 1.2422-0.64453 1.8906-0.375 0.64453 0.26953 1.0664 0.90234 1.0664 1.6016 0 0.46094-0.18359 0.90234-0.50781 1.2266-0.32812 0.32422-0.76953 0.50781-1.2305 0.50781z"/>
  <path d="m293.3 417.46c-2.6172 0-4.7344 2.1172-4.7344 4.7344v8.7773c0 2.6133 2.1172 4.7344 4.7344 4.7344 2.6172 0 4.7344-2.1211 4.7344-4.7344v-8.7773c0-1.2578-0.49609-2.4609-1.3867-3.3477-0.88672-0.89062-2.0898-1.3867-3.3477-1.3867z"/>
 </g>
</svg>
