<?xml version="1.0" encoding="UTF-8"?>
<svg width="752pt" height="752pt" version="1.1" viewBox="0 0 752 752" xmlns="http://www.w3.org/2000/svg">
 <g fill="#fff">
  <path d="m237.52 514.49h-46.641c-2.8711 0-5.7422 2.1523-5.7422 5.7422 0 3.5859 2.1523 5.7422 5.7422 5.7422h45.922c2.8711 0 5.7422-2.1523 5.7422-5.7422 0-3.5898-2.1523-5.7422-5.0234-5.7422z"/>
  <path d="m491.53 491.53c-2.1523-2.1523-5.0234-2.8711-7.8945-0.71875l-27.984 23.68c-2.8711 2.1523-2.8711 5.7422 0 7.8945l27.984 23.68c2.1523 2.1523 5.7422 1.4336 7.8945-0.71875s1.4336-5.7422-0.71875-7.8945l-22.961-19.375 22.961-19.375c2.1523-1.4336 2.8711-4.3008 0.71875-7.1719z"/>
  <path d="m582.66 514.49-27.984-23.68c-2.1523-2.1523-5.7422-1.4336-7.8945 0.71875s-1.4336 5.7422 0.71875 7.8945l22.961 19.375-22.961 19.375c-2.1523 2.1523-2.8711 5.0234-0.71875 7.8945 2.1523 2.1523 5.0234 2.8711 7.8945 0.71875l27.984-23.68c2.1523-2.1602 2.1523-6.4648 0-8.6172z"/>
  <path d="m533.14 486.5c-2.8711-1.4336-5.7422 0-7.1758 2.8711l-22.961 54.535c-2.8711 6.457 7.1758 10.762 10.047 4.3047l22.961-54.535c0.71484-2.8711 0-6.457-2.8711-7.1758z"/>
  <path d="m519.51 426.23c-27.266 0-51.664 12.199-68.168 30.855l-61.711-27.984v-27.984c19.375-17.223 38.746-42.336 43.77-76.777 7.1758-2.8711 22.961-11.48 26.551-25.832 2.1523-10.762-1.4336-21.527-12.199-33.008 0-17.223-4.3047-118.39-102.61-124.85-0.71875 0-104.04-8.6094-116.24 88.258v33.008c-14.352 11.48-20.809 22.242-19.375 33.727 2.1523 15.785 19.375 25.113 25.832 27.984 2.1523 10.762 12.199 50.227 40.898 78.93v26.551l-132.02 59.551c-2.1523 0.71875-2.8711 2.8711-2.8711 5.0234v111.94c0 2.8711 2.1523 5.7422 5.7422 5.7422h372.41c50.227 0 91.848-41.617 91.848-92.562-0.003906-50.949-41.621-92.566-91.848-92.566zm-232.48 24.395c13.633 11.48 29.418 16.504 45.922 16.504 16.504 0 32.289-5.7422 45.922-16.504v149.25h-91.844zm56.684-298.5c66.016 3.5898 85.391 54.535 90.41 87.543l-22.242-25.832c-2.1523-2.1523-5.7422-2.8711-7.8945 0l-15.07 17.223c-50.945-45.207-108.35-51.664-149.97 2.8711 0.003907-53.82 51.668-86.824 104.77-81.805zm-98.305 168.62c0-2.1523-1.4336-4.3047-3.5859-5.0234 0 0-20.809-7.8945-22.242-20.809-1.4336-9.3281 8.6094-18.656 17.223-25.113 1.4336-0.71875 2.1523-2.8711 2.1523-4.3047v-12.199c30.137-53.816 81.801-67.449 146.38-10.762 2.1523 2.1523 5.7422 1.4336 7.8945-0.71875l14.352-16.504 28.703 32.289v10.047c0 1.4336 0.71875 2.8711 1.4336 4.3047 9.3281 9.3281 12.914 17.223 11.48 24.398-2.1523 10.762-17.223 17.938-22.242 19.375-2.1523 0.71875-3.5859 2.1523-3.5859 4.3047-6.457 50.227-46.641 80.367-70.32 93.281-43.059 25.113-95.441-32.293-107.64-92.566zm85.391 109.79c12.199 0 23.68-2.8711 47.359-20.09v25.832c-12.199 14.352-28.703 21.527-45.922 21.527-16.504 0-33.727-7.1758-45.922-21.527v-22.961c14.348 10.043 28.699 17.219 44.484 17.219zm-178.67 66.73 124.14-55.969v159.3h-124.14zm236.79 102.61v-158.58l54.535 24.398c-10.047 15.07-16.504 33.008-16.504 52.383 0 35.16 20.09 66.016 48.793 81.801zm130.59 0c-44.488 0-81.082-36.594-81.082-81.801 0-45.203 35.875-81.082 81.082-81.082 44.488 0 81.082 36.594 81.082 81.801s-36.594 81.082-81.082 81.082z"/>
 </g>
</svg>
