<?xml version="1.0" encoding="UTF-8"?>
<svg width="752pt" height="752pt" version="1.1" viewBox="0 0 752 752" xmlns="http://www.w3.org/2000/svg">
 <g>
  <rect width="752" height="752"/>
  <path d="m422.73 487.07 0.0625-1.2617 0.1875-1.2266 0.30469-1.1836 0.41406-1.1328 0.51953-1.0781 0.61719-1.0195 0.71094-0.94922 0.79688-0.875 0.875-0.79688 0.94922-0.71094 1.0195-0.61719 1.0781-0.51953 1.1328-0.41406 1.1836-0.30469 1.2266-0.1875 1.2617-0.066407h116.46v-281.21l-0.054687-2.2695-0.17188-2.2461-0.28125-2.2109-0.38672-2.1758-0.49609-2.1367-0.59375-2.0938-0.69531-2.0547-0.78906-2.0078-0.88672-1.9531-0.97656-1.9062-1.0625-1.8516-1.1484-1.793-1.2305-1.7305-1.3125-1.668-1.3906-1.6016-1.4609-1.5352-1.5352-1.4648-1.6016-1.3867-1.668-1.3125-1.7344-1.2305-1.793-1.1484-1.8477-1.0664-1.9062-0.97266-1.957-0.88672-2.0039-0.78906-2.0547-0.69531-2.0938-0.59766-2.1406-0.49219-2.1719-0.38672-2.2109-0.28125-2.2461-0.17188-2.2734-0.058594h-263.81l-2.2695 0.058594-2.2461 0.17188-2.2109 0.28125-2.1758 0.38672-2.1367 0.49219-2.0938 0.59766-2.0547 0.69531-2.0078 0.78906-1.9531 0.88672-1.9062 0.97266-1.8516 1.0664-1.793 1.1484-1.7305 1.2305-1.668 1.3125-1.6055 1.3867-1.5312 1.4648-1.4648 1.5352-1.3867 1.6016-1.3125 1.668-1.2305 1.7305-1.1484 1.793-1.0664 1.8516-0.97266 1.9062-0.88672 1.9531-0.78906 2.0078-0.69531 2.0547-0.59766 2.0938-0.49219 2.1367-0.38672 2.1758-0.28125 2.2109-0.17187 2.2461-0.058594 2.2695v365.84l0.058594 2.2734 0.17187 2.2422 0.28125 2.2109 0.38672 2.1758 0.49219 2.1406 0.59766 2.0938 0.69531 2.0547 0.78906 2.0039 0.88672 1.957 0.97266 1.9062 1.0664 1.8477 1.1484 1.793 1.2305 1.7344 1.3125 1.668 1.3867 1.6016 1.4648 1.5352 1.5312 1.4609 1.6055 1.3906 1.668 1.3125 1.7305 1.2305 1.793 1.1484 1.8516 1.0625 1.9062 0.97656 1.9531 0.88672 2.0078 0.78906 2.0547 0.69531 2.0938 0.59375 2.1367 0.49609 2.1758 0.38672 2.2109 0.28125 2.2461 0.17188 2.2695 0.054687h179.18zm-170.91-187.27v-68.031h15.184v28.422h27.059v-28.422h15.18v68.031h-15.18v-26.762h-27.059v26.762zm87.789 0v-54.891h-19.27v-13.141h53.723v13.141h-19.27v54.891zm45.547 0v-68.031h20.539l17.516 37.375 17.617-37.375h20.438v68.031h-15.184v-42.82l-18.395 37.176h-9.0508l-18.297-37.176v42.82zm92.852 0v-68.031h15.18v54.504h29.004v13.527zm-226.19 53.465v-15.426h107.98v15.426zm0 44.812v-15.426h230.15v15.426z" fill="#d2d2d2"/>
  <path d="m452.2 490.34h98.598l-110.94 112.11v-99.762c0-6.8164 5.5234-12.344 12.34-12.344z" fill="#d2d2d2"/>
 </g>
</svg>
