<?xml version="1.0" encoding="UTF-8"?>
<svg width="752pt" height="752pt" version="1.1" viewBox="0 0 752 752" xmlns="http://www.w3.org/2000/svg">
 <g>
  <rect width="752" height="752"/>
  <path d="m422.73 487.07 0.0625-1.2617 0.1875-1.2266 0.30469-1.1836 0.41406-1.1328 0.51953-1.0781 0.61719-1.0195 0.71094-0.94922 0.79688-0.875 0.875-0.79688 0.94922-0.71094 1.0195-0.61719 1.0781-0.51953 1.1328-0.41406 1.1836-0.30469 1.2266-0.1875 1.2617-0.066407h116.46v-281.21l-0.054687-2.2695-0.17188-2.2461-0.28125-2.2109-0.38672-2.1758-0.49609-2.1367-0.59375-2.0938-0.69531-2.0547-0.78906-2.0078-0.88672-1.9531-0.97656-1.9062-1.0625-1.8516-1.1484-1.793-1.2305-1.7305-1.3125-1.668-1.3906-1.6016-1.4609-1.5352-1.5352-1.4648-1.6016-1.3867-1.668-1.3125-1.7344-1.2305-1.793-1.1484-1.8477-1.0664-1.9062-0.97266-1.957-0.88672-2.0039-0.78906-2.0547-0.69531-2.0938-0.59766-2.1406-0.49219-2.1719-0.38672-2.2109-0.28125-2.2461-0.17188-2.2734-0.058594h-263.81l-2.2695 0.058594-2.2461 0.17188-2.2109 0.28125-2.1758 0.38672-2.1367 0.49219-2.0938 0.59766-2.0547 0.69531-2.0078 0.78906-1.9531 0.88672-1.9062 0.97266-1.8516 1.0664-1.793 1.1484-1.7305 1.2305-1.668 1.3125-1.6055 1.3867-1.5312 1.4648-1.4648 1.5352-1.3867 1.6016-1.3125 1.668-1.2305 1.7305-1.1484 1.793-1.0664 1.8516-0.97266 1.9062-0.88672 1.9531-0.78906 2.0078-0.69531 2.0547-0.59766 2.0938-0.49219 2.1367-0.38672 2.1758-0.28125 2.2109-0.17187 2.2461-0.058594 2.2695v365.84l0.058594 2.2734 0.17187 2.2422 0.28125 2.2109 0.38672 2.1758 0.49219 2.1406 0.59766 2.0938 0.69531 2.0547 0.78906 2.0039 0.88672 1.957 0.97266 1.9062 1.0664 1.8477 1.1484 1.793 1.2305 1.7344 1.3125 1.668 1.3867 1.6016 1.4648 1.5352 1.5312 1.4609 1.6055 1.3906 1.668 1.3125 1.7305 1.2305 1.793 1.1484 1.8516 1.0625 1.9062 0.97656 1.9531 0.88672 2.0078 0.78906 2.0547 0.69531 2.0938 0.59375 2.1367 0.49609 2.1758 0.38672 2.2109 0.28125 2.2461 0.17188 2.2695 0.054687h179.18zm-87.73-184.95-1.9961-0.09375-1.9688-0.1875-1.9453-0.28125-1.918-0.37109-1.8945-0.46875-1.8672-0.5625-1.8438-0.65234-1.8203-0.75-1.793-0.83984-1.7695-0.9375-1.7422-1.0273-1.7188-1.1211-1.6914-1.2188-1.668-1.3086-1.6445-1.4023-0.8125-0.73438 9.0508-11.098 0.6875 0.59375 1.3594 1.1289 1.3516 1.0547 1.3359 0.97656 1.3203 0.90625 1.3125 0.82813 1.2969 0.75 1.2812 0.67969 1.2734 0.60156 1.2578 0.52734 1.2461 0.44922 1.2305 0.37891 1.2227 0.30078 1.2031 0.22656 1.1953 0.14844 1.1797 0.074218 0.58594 0.011719 0.51562-0.007813 0.99219-0.054687 0.93359-0.11328 0.875-0.16797 0.82422-0.22656 0.76172-0.28125 0.71094-0.33594 0.65234-0.39453 0.30469-0.21875 0.28906-0.23047 0.51953-0.48828 0.44922-0.53125 0.37109-0.56641 0.30078-0.60938 0.22266-0.64844 0.14844-0.6875 0.074219-0.72656 0.007812-0.37891-0.007812-0.37891-0.078126-0.72656-0.16016-0.6875-0.23828-0.64844-0.31641-0.60547-0.39453-0.57031-0.47266-0.52734-0.55469-0.49219-0.30469-0.23047-0.33594-0.22266-0.78906-0.45312-0.94141-0.45313-1.0977-0.45312-1.2539-0.45703-1.4102-0.45703-1.5625-0.46094-1.7188-0.46094-0.91797-0.23047-0.73437-0.17578-1.4336-0.36719-1.3867-0.37891-1.332-0.39453-1.2852-0.40625-1.2344-0.41797-1.1875-0.43359-1.1367-0.44531-1.0859-0.46094-1.0352-0.47266-0.98438-0.48438-0.9375-0.5-0.88672-0.51172-0.83594-0.52344-0.78906-0.54297-0.73438-0.55078-0.35156-0.28125-0.33594-0.28906-0.64453-0.60547-0.60156-0.64453-0.55859-0.6875-0.51562-0.72656-0.47266-0.76562-0.42969-0.80859-0.38672-0.84766-0.34375-0.89062-0.30078-0.92578-0.25781-0.96875-0.21484-1.0078-0.17188-1.0508-0.12891-1.0898-0.085938-1.1289-0.042969-1.1719-0.007812-0.59766 0.007812-0.60156 0.054688-1.1758 0.10938-1.1406 0.16406-1.1094 0.21484-1.0703 0.27344-1.0391 0.32422-1.0039 0.38281-0.96484 0.43359-0.93359 0.48828-0.90234 0.54688-0.86328 0.59766-0.82812 0.65234-0.79688 0.70703-0.76172 0.75781-0.72656 0.81641-0.69141 0.42969-0.33203 0.4375-0.32422 0.89844-0.61328 0.92188-0.57422 0.95312-0.53516 0.97656-0.49219 1.0039-0.45312 1.0312-0.41016 1.0586-0.37109 1.0859-0.32812 1.1133-0.28516 1.1406-0.24609 1.168-0.20703 1.1914-0.16406 1.2227-0.12109 1.2461-0.082032 1.2734-0.042968 0.64844-0.003907 0.85156 0.007813 1.7031 0.074218 1.7031 0.14453 1.7031 0.21875 1.7031 0.29297 1.7031 0.36328 1.7031 0.4375 1.7031 0.51172 0.85156 0.28516 0.84375 0.29688 1.6484 0.64453 1.5938 0.70703 1.5391 0.76562 1.4844 0.82812 1.4297 0.88672 1.375 0.94922 1.3203 1.0117 0.64062 0.52734-7.6875 11.094-0.55469-0.41406-1.1133-0.78516-1.1172-0.73438-1.1211-0.68359-1.125-0.62891-1.1289-0.57812-1.1328-0.52344-1.1406-0.47266-1.1445-0.41797-1.1484-0.36719-1.1523-0.31641-1.1562-0.26172-1.1602-0.21094-1.168-0.15625-1.1719-0.10547-1.1758-0.050781-0.58594-0.007813-0.46875 0.007813-0.89844 0.054687-0.85156 0.11328-0.79688 0.16797-0.74609 0.22656-0.69922 0.28125-0.64844 0.33594-0.59766 0.39453-0.28125 0.21875-0.26562 0.23047-0.47656 0.48438-0.41016 0.52344-0.34375 0.55859-0.27344 0.59766-0.20703 0.63281-0.13672 0.66797-0.066406 0.70703-0.007812 0.36719 0.007812 0.36719 0.085938 0.70313 0.16797 0.66406 0.25 0.62891 0.33594 0.58984 0.41797 0.55078 0.5 0.51562 0.58594 0.47656 0.32422 0.22266 0.36328 0.22266 0.88672 0.45703 1.1055 0.47656 1.3281 0.5 1.543 0.51562 1.7656 0.53516 1.9805 0.55859 2.2031 0.57422 1.1836 0.29688 0.60156 0.15234 1.1758 0.31641 1.1445 0.33594 1.1094 0.35156 1.0742 0.375 1.0391 0.39062 1.0078 0.41016 0.97656 0.42578 0.9375 0.44922 0.90625 0.46484 0.87109 0.48438 0.83984 0.50391 0.80469 0.51953 0.76953 0.54297 0.73828 0.55859 0.70312 0.57812 0.33594 0.29297 0.33203 0.30469 0.625 0.62891 0.58594 0.66406 0.54297 0.69922 0.50391 0.73438 0.46094 0.76562 0.41797 0.80078 0.375 0.83594 0.33594 0.87109 0.29297 0.90234 0.25 0.9375 0.20703 0.97266 0.16797 1.0078 0.125 1.043 0.085938 1.0742 0.039062 1.1094 0.007813 0.56641-0.007813 0.57031-0.054687 1.1133-0.10547 1.0898-0.16016 1.0625-0.21484 1.0352-0.26953 1.0117-0.32031 0.98047-0.375 0.95312-0.42969 0.92969-0.48438 0.89844-0.53516 0.875-0.58984 0.84766-0.64062 0.82031-0.69922 0.79297-0.75 0.76562-0.80469 0.73828-0.42188 0.35938-0.43359 0.34766-0.89062 0.66797-0.92578 0.62109-0.95703 0.57812-0.99609 0.53516-1.0234 0.48828-1.0625 0.44531-1.0938 0.40234-1.1289 0.35547-1.1602 0.3125-1.1992 0.26563-1.2305 0.22266-1.2617 0.17578-1.2969 0.13672-1.332 0.085937-1.3672 0.046875-0.69141 0.003906zm-62.531-0.19141-1.5078-0.074219-1.4844-0.14844-1.4609-0.21875-1.4336-0.29688-1.4141-0.36719-1.3867-0.44531-1.3594-0.51562-1.3398-0.58984-1.3125-0.66406-1.2891-0.73828-1.2656-0.80859-1.2422-0.88672-1.2148-0.95703-1.1953-1.0352-1.168-1.1055-0.57422-0.57812 7.8828-10.902 0.38672 0.40625 0.76953 0.77734 0.77734 0.72266 0.77734 0.67188 0.78516 0.62109 0.78906 0.57031 0.79297 0.51562 0.80078 0.46484 0.80078 0.41406 0.80859 0.36328 0.8125 0.30859 0.81641 0.25781 0.82031 0.20703 0.82812 0.15625 0.82812 0.10156 0.83594 0.054688 0.41797 0.003906 0.39844-0.007813 0.77344-0.078125 0.74609-0.15625 0.71484-0.23047 0.6875-0.3125 0.66016-0.38672 0.62891-0.46484 0.60156-0.54297 0.28906-0.30078 0.27734-0.32031 0.5-0.69922 0.42969-0.77344 0.35547-0.85547 0.28516-0.92969 0.21484-1.0078 0.14453-1.0859 0.070313-1.1641 0.007813-0.60938v-31.922h-20.145v-13.043h35.426v44.379l-0.007813 0.75781-0.046875 1.4727-0.097656 1.4219-0.14844 1.3789-0.19531 1.3281-0.24609 1.2812-0.29297 1.2344-0.34375 1.1836-0.39453 1.1367-0.44141 1.0898-0.48828 1.043-0.53906 0.99219-0.58984 0.94922-0.63672 0.89453-0.6875 0.85156-0.73438 0.80078-0.38672 0.38672-0.39453 0.37109-0.8125 0.70703-0.83984 0.66016-0.87109 0.60938-0.89453 0.56641-0.92188 0.51953-0.95312 0.47266-0.97656 0.42188-1.0078 0.37891-1.0352 0.32812-1.0625 0.28516-1.0898 0.23438-1.1172 0.1875-1.1445 0.14453-1.1758 0.09375-1.1992 0.046875-0.60938 0.003906zm-20.648 51.332v-15.426h107.98v15.426zm0 44.812v-15.426h230.15v15.426z" fill="#d2d2d2"/>
  <path d="m452.2 490.34h98.598l-110.94 112.11v-99.762c0-6.8164 5.5234-12.344 12.34-12.344z" fill="#d2d2d2"/>
 </g>
</svg>
