<?xml version="1.0" encoding="UTF-8"?>
<svg width="752pt" height="752pt" version="1.1" viewBox="0 0 752 752" xmlns="http://www.w3.org/2000/svg">
 <g fill="#fff">
  <path d="m390.87 394.05c-4.4844 2.7148-9.625 4.1484-14.867 4.1484-5.2383 0-10.383-1.4336-14.863-4.1484-5.9805 2.6211-11.156 6.7891-14.992 12.074-3.8359 5.2852-6.1953 11.496-6.8398 17.996 10.875 7.2266 23.641 11.078 36.695 11.078 13.059 0 25.82-3.8516 36.695-11.078-0.64062-6.5-3-12.711-6.8359-17.996s-9.0117-9.4531-14.992-12.074z"/>
  <path d="m386.71 339.78 4.0938 2.0508v-2.8281c0-5.2891-2.8203-10.176-7.3984-12.816-4.582-2.6445-10.223-2.6445-14.801 0-4.5781 2.6406-7.3984 7.5273-7.3984 12.816v5.3203l20.402-5.0977h-0.003907c1.7148-0.43359 3.5273-0.23437 5.1055 0.55469z"/>
  <path d="m361.2 368.6c0 5.2891 2.8203 10.172 7.3984 12.816 4.5781 2.6445 10.219 2.6445 14.801 0 4.5781-2.6445 7.3984-7.5273 7.3984-12.816v-10.227l-8.2578-4.1289-21.34 5.3359z"/>
  <path d="m399.82 250.21 3.6992-14.801h-55.039l3.7031 14.801z"/>
  <path d="m231.71 376c-8.8281 0.011719-17.293 3.5234-23.535 9.7656s-9.7539 14.707-9.7617 23.535v7.3984c0 11.898 6.3438 22.891 16.648 28.84 10.301 5.9453 22.996 5.9453 33.297 0 10.305-5.9492 16.652-16.941 16.652-28.84v-7.3984c-0.011718-8.8281-3.5234-17.293-9.7656-23.535-6.2422-6.2422-14.707-9.7539-23.535-9.7656zm11.102 29.602h-7.4023v14.801h7.3984v14.801l-14.797-0.003906c-4.0859 0-7.3984-3.3125-7.3984-7.3984v-29.602c0-4.0859 3.3125-7.3984 7.3984-7.3984h14.801z"/>
  <path d="m376 302c-17.242-0.03125-33.82 6.6406-46.238 18.602-12.418 11.965-19.703 28.281-20.316 45.516-0.61328 17.23 5.4922 34.027 17.031 46.844 3.793-12.688 12.32-23.426 23.812-30-2.5156-4.3711-3.8516-9.3203-3.8867-14.363v-29.598c0-10.574 5.6406-20.348 14.801-25.633 9.1562-5.2891 20.441-5.2891 29.598 0 9.1562 5.2852 14.801 15.059 14.801 25.633v29.598c-0.035156 5.043-1.375 9.9922-3.8867 14.363 11.492 6.5742 20.016 17.312 23.812 30 11.539-12.816 17.645-29.613 17.031-46.844-0.61328-17.234-7.8984-33.551-20.316-45.516-12.418-11.961-28.996-18.633-46.242-18.602z"/>
  <path d="m376 220.61c5.8906 0 11.535-2.3398 15.699-6.5039 4.1641-4.1641 6.5-9.8086 6.5-15.695 0-5.8906-2.3359-11.535-6.5-15.699-4.1641-4.1641-9.8086-6.5-15.699-6.5-5.8867 0-11.531 2.3359-15.695 6.5-4.1641 4.1641-6.5039 9.8086-6.5039 15.699 0 5.8867 2.3398 11.531 6.5039 15.695 4.1641 4.1641 9.8086 6.5039 15.695 6.5039zm0-33.297v-0.003906c4.4922 0 8.5391 2.7031 10.258 6.8516 1.7148 4.1484 0.76563 8.9219-2.4062 12.098-3.1758 3.1719-7.9492 4.125-12.098 2.4062-4.1484-1.7188-6.8516-5.7656-6.8516-10.254 0-6.1328 4.9688-11.102 11.098-11.102z"/>
  <path d="m246.62 310.46 25.789 15.473v-60.926h-73.996v44.398h44.398v-0.003906c1.3398 0.003906 2.6602 0.36719 3.8086 1.0586zm-3.8086-30.656h14.801v14.801h-14.801zm-14.801 14.801h-14.801v-14.801h14.801z"/>
  <path d="m487 444.2c5.2031-5.457 11.512-9.7461 18.5-12.578-2.3984-4.6133-3.6641-9.7266-3.6992-14.926 0-11.895 6.3477-22.891 16.648-28.836 10.305-5.9492 22.996-5.9492 33.301 0 10.301 5.9453 16.648 16.941 16.648 28.836-0.03125 5.207-1.3008 10.332-3.6992 14.957 6.9844 2.8359 13.289 7.125 18.496 12.578v-83.031h-96.195z"/>
  <path d="m553.59 416.7c0 10.219-8.2812 18.5-18.5 18.5-10.215 0-18.496-8.2812-18.496-18.5 0-10.215 8.2812-18.5 18.496-18.5 10.219 0 18.5 8.2852 18.5 18.5"/>
  <path d="m575.79 235.41h-88.797v75.605c5.2031-5.4609 11.512-9.75 18.5-12.582-2.3984-4.6133-3.6641-9.7266-3.6992-14.926 0-11.895 6.3477-22.887 16.648-28.836 10.305-5.9492 22.996-5.9492 33.301 0 10.301 5.9492 16.648 16.941 16.648 28.836-0.03125 5.207-1.3008 10.336-3.6992 14.957 6.9844 2.8359 13.289 7.125 18.496 12.578v-68.23c0-1.9648-0.77734-3.8477-2.1641-5.2344-1.3906-1.3867-3.2695-2.168-5.2344-2.168z"/>
  <path d="m553.59 283.5c0 10.219-8.2812 18.5-18.5 18.5-10.215 0-18.496-8.2812-18.496-18.5 0-10.215 8.2812-18.496 18.496-18.496 10.219 0 18.5 8.2812 18.5 18.496"/>
  <path d="m379.7 198.41c0 4.9297-7.4023 4.9297-7.4023 0 0-4.9336 7.4023-4.9336 7.4023 0"/>
  <path d="m472.2 353.8v-118.39h-53.422l-6 23.996v0.003906c-0.82422 3.2891-3.7812 5.5977-7.1758 5.6016h-59.199c-3.3945-0.003906-6.3516-2.3125-7.1758-5.6016l-6.0039-24h-157.01c-4.0898 0-7.4023 3.3125-7.4023 7.4023v236.79h303.39zm-288.59-96.195c0-4.0859 3.3125-7.3984 7.3984-7.3984h88.797c1.9648 0 3.8438 0.77734 5.2344 2.168 1.3867 1.3867 2.1641 3.2695 2.1641 5.2305v81.398c0 2.6641-1.4336 5.125-3.7539 6.4375-2.3203 1.3125-5.168 1.2773-7.4531-0.097656l-35.238-21.141h-49.75c-4.0859 0-7.3984-3.3125-7.3984-7.3984zm48.098 207.19c-12.75-0.015625-24.977-5.0859-33.992-14.105-9.0156-9.0156-14.09-21.238-14.105-33.992v-7.3984c0-17.184 9.168-33.062 24.047-41.656 14.883-8.5898 33.219-8.5898 48.102 0 14.879 8.5938 24.047 24.473 24.047 41.656v7.3984c-0.015626 12.754-5.0859 24.977-14.105 33.992-9.0156 9.0195-21.242 14.09-33.992 14.105zm62.898 0h-14.801v-14.797h14.801zm29.598 0h-14.801v-14.797h14.801zm101.38-31.82-0.089844 0.089844-0.13281 0.125c-0.097657 0.089844-0.23047 0.11719-0.32422 0.19922v0.003906c-22.855 16.836-52.949 20.219-78.973 8.8789-26.023-11.336-44.035-35.68-47.27-63.883-3.2305-28.203 8.8047-55.988 31.586-72.922 22.785-16.934 52.863-20.449 78.934-9.2227 26.074 11.227 44.191 35.496 47.543 63.684 3.3555 28.188-8.5625 56.027-31.273 73.059z"/>
  <path d="m511.07 312.15c-6.9102 2.7461-12.871 7.4531-17.148 13.535-4.2773 6.0859-6.6836 13.285-6.9297 20.719h96.195c-0.23438-7.1836-2.5-14.156-6.5391-20.105-5.2031-7.8594-13.191-13.457-22.355-15.664-5.5898 4.0117-12.297 6.1719-19.18 6.1719-6.8828 0-13.59-2.1602-19.18-6.1719-1.6523 0.40234-3.2734 0.91016-4.8633 1.5156z"/>
  <path d="m442.6 553.59v-14.801h-133.2v14.801c0.003906 3.0273-1.8359 5.75-4.6445 6.875l-32.352 12.934v9.7891h207.19v-9.7891l-32.352-12.934c-2.8086-1.125-4.6484-3.8477-4.6484-6.875z"/>
  <path d="m511.07 445.34c-6.9102 2.7461-12.871 7.4492-17.148 13.535-4.2773 6.0859-6.6836 13.285-6.9297 20.719h96.195c-0.23438-7.1875-2.5-14.156-6.5391-20.105-5.2031-7.8594-13.191-13.457-22.355-15.664-5.5898 4.0117-12.297 6.1719-19.18 6.1719-6.8828 0-13.59-2.1602-19.18-6.1719-1.6523 0.40234-3.2734 0.91016-4.8633 1.5156z"/>
  <path d="m168.81 494.4v22.199c0 1.9609 0.78125 3.8438 2.168 5.2305 1.3867 1.3867 3.2695 2.168 5.2344 2.168h399.58c1.9648 0 3.8438-0.78125 5.2344-2.168 1.3867-1.3867 2.1641-3.2695 2.1641-5.2305v-22.199z"/>
  <path d="m427.8 191.01h14.801v14.801h-14.801z"/>
  <path d="m457.4 176.21h14.801v29.598h-14.801z"/>
  <path d="m487 161.41h14.801v44.398h-14.801z"/>
 </g>
</svg>
