<?xml version="1.0" encoding="UTF-8"?>
<svg width="752pt" height="752pt" version="1.1" viewBox="0 0 752 752" xmlns="http://www.w3.org/2000/svg">
 <defs>
  <clipPath id="b">
   <path d="m335 139.21h139v181.79h-139z"/>
  </clipPath>
  <clipPath id="a">
   <path d="m222 320h308v292.79h-308z"/>
  </clipPath>
 </defs>
 <g>
  <g clip-path="url(#b)">
   <path d="m335.77 220.84c2.0469 48.008 24.617 99.703 68.992 99.703s67.457-52.82 69.094-101.24v-0.30469-5.375c0.34766-14.809-3.1797-29.453-10.234-42.48-1.1406-1.9961-2.3867-3.9258-3.7383-5.7852-1.3203-1.7812-2.7383-3.4883-4.2461-5.1172-13.293-13.957-31.922-21.559-51.184-20.883-2.3867 0-4.7422 0.10156-7.0625 0.30859l-3.4805 0.35938c-2.2852 0.27344-4.5391 0.64844-6.7578 1.125l-3.2773 0.76953c-28.148 7.4727-48.621 31.273-48.621 71.652v6.1406 1.125zm10.234-9.0586c1.332-5.9727 4.168-11.504 8.2422-16.07 0 0 29.633-2.1484 51.18-2.1484 21.547 0 50.207 2.1484 50.207 2.1484h0.003906c4.4023 5.3047 7.0977 11.816 7.7266 18.68 1.2266 7.1133 1.8945 13.715 2.1992 18.426h0.003906c-1.8086 17.277-6.918 34.043-15.051 49.391-14.383 25.59-32.809 31.066-45.809 31.066-23.492 0-37.875-16.891-45.809-31.066h0.003906c-8.1211-15.383-13.215-32.188-14.996-49.492 0.015625-7.043 0.80469-14.062 2.3555-20.934z" fill="#fff"/>
  </g>
  <g clip-path="url(#a)">
   <path d="m529.7 405.36c-2.1992-60.344-23.184-70.273-37.668-75.902-9.8789-3.7344-30.402-10.234-42.02-8.6992-11.621 1.5312-24.211 15.66-45.195 15.66s-35.828-13.715-46.625-15.355c-10.801-1.6367-37.156 4.6562-46.422 8.4961-9.2656 3.8398-26 10.645-49.75 41.816-23.746 31.168-35.312 67.457-30.707 69.758l2.457 0.92188c-10.645 37.055-17.25 75.695-5.1172 90.691l-0.003906 0.003906c2.0547 2.5547 4.4883 4.7812 7.2188 6.6016l1.0234 0.61328 0.61328 0.35937c3.0156 1.6562 6.3125 2.7344 9.7266 3.1719 2.3008 0.38672 4.625 0.58984 6.9609 0.61328 7.1211-0.14453 14.117-1.8945 20.473-5.1172 8.5117-4.9258 16.703-10.398 24.516-16.379 0.78125 23.379 3.4336 46.656 7.9297 69.609 1.6367 19.246 17.605 20.473 39.359 20.473h124.42c21.754 0 35.211-4.4023 39.359-20.473 4.1445-16.074 21.648-126.47 19.449-186.86zm-239.32 50.105-0.61328 1.0742zm4.043-0.46094c3.0703-2.918 9.2109-23.441 10.953-22.059 1.7383 1.3828-1.2812 11.105-3.3281 30.402 15.098-9.0586 33.422-20.473 36.082-22.266-4.5547 2.8672-53.281 33.473-56.301 33.473-2.457 0 5.5781-13.973 8.0352-18.016h0.003906c1.6406-0.019531 3.2383-0.55469 4.5547-1.5352zm100.32-0.71484c-1.1797 6.8555-20.113 14.328-20.113 14.328-5.9375 2.4688-12.469 3.1445-18.785 1.9453-0.58203-0.1875-1.1484-0.42578-1.6875-0.71484 0 0.76953 0.35937 1.5352 0.41016 2.1484-28.457 22.211-73.598 56.301-82.605 60.598h-0.003906c-5.3984 2.7617-11.34 4.3008-17.402 4.5039-1.9727-0.015625-3.9375-0.1875-5.8828-0.51172-2.5-0.35547-4.9141-1.1719-7.1172-2.4062h-0.71875 0.003906c-2.1094-1.4102-3.9922-3.1367-5.5781-5.1172-11.262-13.82-1.0742-57.887 5.6797-81.891l41.305 10.234c-9.0586 15.66-7.7266 18.324-6.3984 20.934v0.003906c1.1719 2.3555 3.4727 3.9414 6.0898 4.1953h0.71484c2.3555 0 5.1172 0 58.91-33.781l1.2812 1.3828 0.97266 1.0742v0.25781c-1.5352-5.1172-3.9922-13.461-5.1172-16.684-1.6367-5.1172-4.043-8.8047-3.9414-10.234 0.10156-1.4336 2.1992-2.4062 5.1172-1.5859v-0.003906c3.4219 1.5156 6.207 4.1758 7.8828 7.5234 1.0156 1.9766 2.2539 3.8281 3.6836 5.5273l6.6016-9.8789c0.35547-0.52344 0.76562-1.0039 1.2305-1.4336l22.367-32.449s4.3516-5.4258 7.832-3.2773c3.4766 2.1523 0.50781 7.5273 0.50781 7.5273l-14.227 25.59c5.6211 2.6562 10.352 6.8867 13.613 12.18 4.6992 5.5312 6.6875 12.867 5.4258 20.016z" fill="#fff"/>
  </g>
 </g>
</svg>
