<?xml version="1.0" encoding="UTF-8"?>
<svg width="752pt" height="752pt" version="1.1" viewBox="0 0 752 752" xmlns="http://www.w3.org/2000/svg">
 <g>
  <rect width="752" height="752"/>
  <path d="m422.73 487.07 0.0625-1.2617 0.1875-1.2266 0.30469-1.1836 0.41406-1.1328 0.51953-1.0781 0.61719-1.0195 0.71094-0.94922 0.79688-0.875 0.875-0.79688 0.94922-0.71094 1.0195-0.61719 1.0781-0.51953 1.1328-0.41406 1.1836-0.30469 1.2266-0.1875 1.2617-0.066407h116.46v-281.21l-0.054687-2.2695-0.17188-2.2461-0.28125-2.2109-0.38672-2.1758-0.49609-2.1367-0.59375-2.0938-0.69531-2.0547-0.78906-2.0078-0.88672-1.9531-0.97656-1.9062-1.0625-1.8516-1.1484-1.793-1.2305-1.7305-1.3125-1.668-1.3906-1.6016-1.4609-1.5352-1.5352-1.4648-1.6016-1.3867-1.668-1.3125-1.7344-1.2305-1.793-1.1484-1.8477-1.0664-1.9062-0.97266-1.957-0.88672-2.0039-0.78906-2.0547-0.69531-2.0938-0.59766-2.1406-0.49219-2.1719-0.38672-2.2109-0.28125-2.2461-0.17188-2.2734-0.058594h-263.81l-2.2695 0.058594-2.2461 0.17188-2.2109 0.28125-2.1758 0.38672-2.1367 0.49219-2.0938 0.59766-2.0547 0.69531-2.0078 0.78906-1.9531 0.88672-1.9062 0.97266-1.8516 1.0664-1.793 1.1484-1.7305 1.2305-1.668 1.3125-1.6055 1.3867-1.5312 1.4648-1.4648 1.5352-1.3867 1.6016-1.3125 1.668-1.2305 1.7305-1.1484 1.793-1.0664 1.8516-0.97266 1.9062-0.88672 1.9531-0.78906 2.0078-0.69531 2.0547-0.59766 2.0938-0.49219 2.1367-0.38672 2.1758-0.28125 2.2109-0.17187 2.2461-0.058594 2.2695v365.84l0.058594 2.2734 0.17187 2.2422 0.28125 2.2109 0.38672 2.1758 0.49219 2.1406 0.59766 2.0938 0.69531 2.0547 0.78906 2.0039 0.88672 1.957 0.97266 1.9062 1.0664 1.8477 1.1484 1.793 1.2305 1.7344 1.3125 1.668 1.3867 1.6016 1.4648 1.5352 1.5312 1.4609 1.6055 1.3906 1.668 1.3125 1.7305 1.2305 1.793 1.1484 1.8516 1.0625 1.9062 0.97656 1.9531 0.88672 2.0078 0.78906 2.0547 0.69531 2.0938 0.59375 2.1367 0.49609 2.1758 0.38672 2.2109 0.28125 2.2461 0.17188 2.2695 0.054687h179.18zm-170.91-186.11v-68.027h24.039l0.97266 0.003906 1.8906 0.046875 1.8242 0.097657 1.7617 0.14062 1.6914 0.19141 1.625 0.23828 1.5625 0.28516 1.4922 0.33203 1.4258 0.37891 1.3594 0.42969 1.293 0.47266 1.2266 0.52344 1.1602 0.57031 1.0938 0.61719 1.0273 0.66797 0.96094 0.71094 0.45703 0.375 0.4375 0.38672 0.83984 0.8125 0.78125 0.85938 0.72656 0.91406 0.67188 0.96484 0.61328 1.0156 0.55859 1.0664 0.50391 1.1172 0.44922 1.1641 0.39062 1.2188 0.33594 1.2734 0.27734 1.3203 0.22266 1.3711 0.16797 1.4219 0.11328 1.4727 0.054687 1.5234 0.007813 0.78516-0.007813 0.77734-0.058594 1.5234-0.11328 1.4727-0.17188 1.4141-0.23047 1.3633-0.28516 1.3125-0.34766 1.2578-0.39844 1.207-0.46094 1.1523-0.51562 1.0977-0.57422 1.0508-0.63281 0.99219-0.6875 0.94141-0.74609 0.88672-0.80469 0.83594-0.85938 0.78516-0.45312 0.37109-0.46875 0.35937-0.97656 0.68359-1.0391 0.64062-1.1016 0.58984-1.1602 0.54688-1.2188 0.50391-1.2812 0.45703-1.3438 0.41016-1.4023 0.36328-1.4609 0.32031-1.5234 0.27344-1.582 0.23047-1.6445 0.17969-1.707 0.13672-1.7617 0.09375-1.8281 0.042969-0.93359 0.007812h-9.0508v18.977zm80 0v-26.859l-23.551-41.168h16.445l14.699 25.305 14.695-25.305h16.445l-23.551 41.168v26.859zm-53.668-32.129 1.7461-0.09375 1.5938-0.19141 1.4414-0.28906 1.2891-0.38281 1.1367-0.48047 0.98828-0.57422 0.83203-0.67188 0.35937-0.37109 0.32813-0.39453 0.59766-0.85156 0.51172-0.94531 0.42578-1.0312 0.33984-1.1172 0.25391-1.207 0.17188-1.2969 0.085937-1.3828 0.011719-0.72656-0.015625-0.72266-0.10938-1.3633-0.22266-1.2617-0.33203-1.1523-0.44531-1.0469-0.55469-0.9375-0.66797-0.83203-0.77734-0.73047-0.42969-0.32031-0.45703-0.30078-1.0117-0.54297-1.1367-0.46484-1.2578-0.39062-1.3789-0.30859-1.5039-0.23438-1.6289-0.15234-1.75-0.078125-0.92188-0.011719h-8.6602v22.871h10.219zm-26.332 84.426v-15.426h107.98v15.426zm0 44.812v-15.426h230.15v15.426z" fill="#d2d2d2"/>
  <path d="m452.2 490.34h98.598l-110.94 112.11v-99.762c0-6.8164 5.5234-12.344 12.34-12.344z" fill="#d2d2d2"/>
 </g>
</svg>
