<?xml version="1.0" encoding="UTF-8"?>
<svg width="752pt" height="752pt" version="1.1" viewBox="0 0 752 752" xmlns="http://www.w3.org/2000/svg">
 <path d="m175.04 382.02h105.06l6.2578 30.484h179.29l6.2578-30.484h105.06c11.328 0 20.59 9.2695 20.59 20.594v31.246h-443.11v-31.246c0-11.328 9.2695-20.594 20.594-20.594zm200.96-226.49c22.77 0 41.23 18.457 41.23 41.23 0 22.77-18.457 41.23-41.23 41.23-22.77 0-41.23-18.457-41.23-41.23 0-22.77 18.457-41.23 41.23-41.23zm37.449 80.066c19.258 8.5625 34.629 23.516 42.984 41.93h-160.87c8.3555-18.414 23.727-33.367 42.984-41.93 9.7031 9.3594 22.898 15.121 37.449 15.121 14.547 0 27.742-5.7617 37.449-15.121zm41.816 164.19 22.496-109.53h-203.53l22.496 109.53zm-79.266-71.809c9.4141 0 17.043 7.6289 17.043 17.043s-7.6289 17.043-17.043 17.043c-9.4141 0-17.043-7.6289-17.043-17.043s7.6289-17.043 17.043-17.043zm192.44 118.62v149.89h-63.375v-53.965h-258.13v53.965h-63.375v-149.89z" fill="#fff" fill-rule="evenodd"/>
</svg>
